<?xml version="1.0" encoding="utf-8"?>
<!-- Generator: Adobe Illustrator 26.0.2, SVG Export Plug-In . SVG Version: 6.00 Build 0)  -->
<svg version="1.0" id="Layer_1" xmlns="http://www.w3.org/2000/svg" xmlns:xlink="http://www.w3.org/1999/xlink" x="0px" y="0px"
	 viewBox="0 0 255.12 56.69" style="enable-background:new 0 0 255.12 56.69;" xml:space="preserve">
<style type="text/css">
	.st0{fill:#FFFFFF;}
	.st1{fill:#32327E;}
</style>
<g>
	<circle class="st0" cx="28.19" cy="28.19" r="28.19"/>
	<g>
		<path class="st1" d="M28.19,0C12.62,0,0,12.62,0,28.19c0,12.3,7.88,22.76,18.87,26.61c-1.62-8.45-1.68-14.42-1.4-18.09l-2.11,5.37
			l1.8,2.98c0.15,0.24,0.07,0.56-0.17,0.71c-0.08,0.05-0.18,0.07-0.27,0.07c-0.17,0-0.34-0.09-0.44-0.25l-1.08-1.77l-0.15,2.69
			c-0.02,0.27-0.24,0.49-0.51,0.49c-0.01,0-0.02,0-0.03,0c-0.28-0.02-0.5-0.26-0.48-0.54l0.16-2.73l-1.6,2.01
			c-0.18,0.22-0.5,0.26-0.72,0.08c-0.22-0.18-0.26-0.5-0.08-0.72l1.6-2.01l-1.9,0.55c-0.27,0.08-0.56-0.08-0.64-0.35
			c-0.08-0.27,0.08-0.56,0.35-0.64l3.22-0.93l2.78-7.08c-0.22-0.13-0.43-0.28-0.62-0.45l-3.71,3.01l0.1,3.48
			c0.01,0.28-0.21,0.52-0.5,0.53c-0.01,0-0.01,0-0.02,0c-0.28,0-0.51-0.22-0.51-0.5l-0.06-2.07l-1.46,2.26
			c-0.1,0.15-0.26,0.24-0.43,0.24c-0.1,0-0.19-0.03-0.28-0.08c-0.24-0.15-0.31-0.47-0.15-0.71l1.48-2.3l-2.39,0.96
			c-0.26,0.1-0.56-0.02-0.67-0.28c-0.11-0.26,0.02-0.56,0.29-0.67l2.38-0.96l-1.93-0.46C8.43,36.56,8.26,36.28,8.33,36
			c0.07-0.28,0.34-0.45,0.62-0.38l3.26,0.77l3.71-3.01c-0.16-0.26-0.28-0.55-0.37-0.85l-5.93,0.36l-1.94,2.89
			c-0.1,0.15-0.26,0.23-0.43,0.23c-0.1,0-0.2-0.03-0.29-0.09c-0.24-0.16-0.3-0.48-0.14-0.71l1.16-1.72l-2.5,0.99
			c-0.06,0.03-0.13,0.04-0.19,0.04c-0.2,0-0.4-0.12-0.48-0.33c-0.1-0.26,0.02-0.56,0.29-0.67l2.54-1.01l-2.5-0.61
			c-0.28-0.07-0.45-0.35-0.38-0.62c0.07-0.28,0.34-0.44,0.62-0.38l2.5,0.61l-1.3-1.49c-0.19-0.21-0.16-0.54,0.05-0.73
			c0.21-0.19,0.54-0.17,0.73,0.05l2.2,2.52l5.84-0.35c0-0.55,0.14-1.07,0.37-1.54l-4.9-3.6l-3.34,0.98
			c-0.05,0.01-0.1,0.02-0.14,0.02c-0.22,0-0.43-0.15-0.49-0.37c-0.08-0.27,0.08-0.56,0.35-0.64l1.99-0.58l-2.56-0.84
			c-0.27-0.09-0.42-0.38-0.33-0.65c0.09-0.27,0.38-0.41,0.65-0.33l2.6,0.85l-1.53-2.07c-0.17-0.23-0.12-0.55,0.11-0.72
			c0.23-0.17,0.55-0.12,0.72,0.11l1.53,2.06l-0.04-1.98c-0.01-0.28,0.22-0.52,0.5-0.53c0.29,0,0.52,0.22,0.53,0.5l0.07,3.35
			l4.87,3.58c0.29-0.32,0.64-0.58,1.03-0.78l-1.43-7.28l-3.12-1.54c-0.26-0.13-0.36-0.43-0.23-0.69c0.13-0.25,0.43-0.36,0.69-0.23
			l1.86,0.92l-1.32-2.35c-0.14-0.25-0.05-0.56,0.2-0.7c0.25-0.14,0.56-0.05,0.7,0.2l1.34,2.38l0.27-2.56
			c0.03-0.28,0.28-0.49,0.57-0.46c0.28,0.03,0.49,0.28,0.46,0.57l-0.27,2.55l1.31-1.49c0.19-0.21,0.51-0.23,0.73-0.05
			c0.21,0.19,0.24,0.51,0.05,0.73l-2.21,2.52l1.41,7.15c0.2-0.04,0.41-0.06,0.62-0.06c0.34,0,0.66,0.06,0.97,0.15l2.79-7.13
			l-1.81-2.97c-0.15-0.24-0.07-0.56,0.17-0.71c0.24-0.15,0.56-0.07,0.71,0.17l1.08,1.77l0.15-2.69c0.02-0.28,0.25-0.49,0.54-0.49
			c0.28,0.02,0.5,0.26,0.49,0.54l-0.15,2.73l1.6-2.01c0.18-0.22,0.5-0.26,0.72-0.08c0.22,0.18,0.26,0.5,0.08,0.72l-1.6,2.01
			l1.9-0.56c0.27-0.08,0.56,0.08,0.64,0.35c0.08,0.27-0.08,0.56-0.35,0.64l-3.21,0.94l-2.8,7.17c0.67,0.43,1.18,1.07,1.46,1.83
			l5.83-1.1l1.56-3.11c0.13-0.25,0.44-0.36,0.69-0.23c0.25,0.13,0.36,0.44,0.23,0.69l-0.93,1.85l2.36-1.3
			c0.25-0.13,0.56-0.05,0.7,0.2c0.14,0.25,0.05,0.56-0.2,0.7l-2.39,1.32l2.56,0.29c0.28,0.03,0.49,0.29,0.45,0.57
			c-0.03,0.26-0.25,0.46-0.51,0.46c-0.02,0-0.04,0-0.06,0l-2.55-0.29l1.48,1.32c0.21,0.19,0.23,0.51,0.04,0.73
			c-0.1,0.11-0.24,0.17-0.38,0.17c-0.12,0-0.24-0.04-0.34-0.13l-2.5-2.23l-5.83,1.1c0,0.06,0.02,0.13,0.02,0.19
			c0,0.31-0.05,0.6-0.12,0.88l7.41,2.98l2.99-1.78c0.24-0.14,0.56-0.07,0.71,0.18c0.15,0.24,0.07,0.56-0.18,0.71l-1.78,1.06
			l2.68,0.17c0.28,0.02,0.5,0.26,0.48,0.55c-0.02,0.28-0.26,0.5-0.55,0.48l-2.73-0.18l2,1.62c0.22,0.18,0.25,0.5,0.08,0.72
			c-0.1,0.13-0.25,0.19-0.4,0.19c-0.11,0-0.23-0.04-0.32-0.11l-2-1.62l0.54,1.91c0.08,0.27-0.08,0.56-0.36,0.63
			c-0.05,0.01-0.09,0.02-0.14,0.02c-0.22,0-0.43-0.15-0.49-0.38l-0.91-3.22l-7.42-2.98c-0.22,0.36-0.49,0.68-0.82,0.94l3.57,5.4
			l3.47,0.23c0.28,0.02,0.5,0.26,0.48,0.55c-0.02,0.28-0.26,0.5-0.55,0.48l-2.07-0.14l2.11,1.67c0.22,0.18,0.26,0.5,0.08,0.72
			c-0.18,0.22-0.5,0.26-0.72,0.08l-2.14-1.69l0.72,2.47c0.08,0.27-0.08,0.56-0.35,0.64c-0.05,0.01-0.1,0.02-0.15,0.02
			c-0.22,0-0.43-0.15-0.49-0.37l-0.72-2.46l-0.64,1.88c-0.07,0.21-0.27,0.35-0.49,0.35c-0.06,0-0.11-0.01-0.17-0.03
			c-0.27-0.09-0.41-0.38-0.32-0.65l1.08-3.17l-3.59-5.43c-0.31,0.13-0.66,0.2-1.01,0.24c-0.42,3.28-0.72,9.98,1.35,20.28
			c2.39,0.66,4.89,1.01,7.49,1.01c15.57,0,28.19-12.62,28.19-28.19S43.76,0,28.19,0z M33.24,18.81c-2.91,1.82-5.45,4.69-5.48,4.72
			c-0.1,0.12-0.24,0.18-0.39,0.18c-0.12,0-0.24-0.04-0.34-0.13c-0.21-0.19-0.23-0.51-0.05-0.73c0.11-0.12,2.62-2.96,5.62-4.86
			l-0.2-3.43c-0.02-0.28,0.2-0.53,0.48-0.54c0.29,0.01,0.53,0.2,0.54,0.48l0.12,2.07l1.39-2.3c0.15-0.24,0.46-0.32,0.71-0.17
			c0.24,0.15,0.32,0.46,0.17,0.71l-1.41,2.34l2.36-1.03c0.26-0.11,0.56,0.01,0.68,0.27c0.11,0.26-0.01,0.56-0.27,0.68l-2.36,1.03
			l1.94,0.4c0.28,0.06,0.46,0.33,0.4,0.61c-0.05,0.24-0.26,0.41-0.5,0.41c-0.03,0-0.07,0-0.1-0.01L33.24,18.81z M44.52,20.89
			l-2.57,0.03l1.63,1.12c0.23,0.16,0.29,0.48,0.13,0.72c-0.1,0.15-0.26,0.22-0.42,0.22c-0.1,0-0.2-0.03-0.29-0.09l-2.79-1.92
			c-2.74,0.47-5.48,2.17-5.51,2.19c-0.09,0.05-0.18,0.08-0.27,0.08c-0.17,0-0.34-0.09-0.44-0.24c-0.15-0.24-0.08-0.56,0.16-0.71
			c0.12-0.08,2.88-1.8,5.79-2.32l1.15-3.24c0.1-0.27,0.39-0.41,0.66-0.31c0.27,0.09,0.41,0.39,0.31,0.66l-0.69,1.96l2.18-1.58
			c0.23-0.17,0.55-0.12,0.72,0.11c0.17,0.23,0.12,0.55-0.11,0.72l-2.21,1.6l2.57-0.03c0,0,0,0,0.01,0c0.28,0,0.51,0.23,0.51,0.51
			C45.04,20.66,44.81,20.89,44.52,20.89z"/>
	</g>
</g>
<g>
	<path class="st1" d="M81.65,41.08c-0.41,0.92-0.98,1.7-1.72,2.33c-0.74,0.63-1.62,1.11-2.63,1.44c-1.02,0.33-2.14,0.49-3.36,0.49
		H62.55v-25.9h10.92c2.67,0,4.74,0.65,6.21,1.96c1.46,1.31,2.2,3.08,2.2,5.31c0,0.73-0.11,1.38-0.32,1.96
		c-0.22,0.58-0.5,1.1-0.84,1.55c-0.34,0.45-0.71,0.83-1.11,1.15c-0.4,0.32-0.76,0.55-1.09,0.69c0.41,0.19,0.83,0.44,1.28,0.74
		c0.44,0.3,0.85,0.69,1.2,1.15c0.36,0.46,0.66,1.01,0.9,1.65c0.24,0.64,0.36,1.4,0.36,2.27C82.26,39.09,82.05,40.16,81.65,41.08z
		 M75.67,24.76c-0.6-0.55-1.47-0.82-2.62-0.82h-5.19v5.97h5.19c1.15,0,2.02-0.27,2.62-0.82c0.6-0.55,0.9-1.27,0.9-2.16
		C76.57,26.03,76.27,25.31,75.67,24.76z M76.09,35.38c-0.57-0.62-1.47-0.93-2.69-0.93h-5.54v6.37h5.54c1.22,0,2.12-0.31,2.69-0.95
		c0.57-0.63,0.86-1.38,0.86-2.26C76.95,36.75,76.66,36,76.09,35.38z"/>
	<path class="st1" d="M91.39,45.33c-1.02,0-1.91-0.16-2.65-0.47c-0.74-0.31-1.35-0.73-1.83-1.24c-0.47-0.51-0.82-1.08-1.04-1.73
		c-0.22-0.64-0.33-1.3-0.33-1.98V19.44h5v20.19c0,0.56,0.13,0.98,0.4,1.27c0.27,0.29,0.72,0.44,1.36,0.44h1.91v4H91.39z"/>
	<path class="st1" d="M108,45.33v-1.75c-0.66,0.66-1.42,1.15-2.28,1.47c-0.86,0.33-1.75,0.49-2.66,0.49c-0.99,0-1.88-0.15-2.67-0.44
		c-0.79-0.29-1.46-0.7-2.02-1.24c-0.81-0.78-1.35-1.61-1.62-2.49c-0.27-0.88-0.4-1.85-0.4-2.89V26.38h5v11.46
		c0,0.65,0.09,1.2,0.28,1.64c0.19,0.44,0.44,0.79,0.75,1.05c0.31,0.27,0.67,0.46,1.06,0.58c0.39,0.12,0.77,0.18,1.15,0.18
		c0.38,0,0.76-0.06,1.15-0.18c0.39-0.12,0.74-0.31,1.06-0.58c0.31-0.27,0.57-0.62,0.77-1.05c0.2-0.44,0.3-0.98,0.3-1.64V26.38h5
		v18.95H108z"/>
	<path class="st1" d="M120.79,37.33c0,1.24,0.38,2.25,1.13,3.04c0.75,0.79,1.83,1.18,3.23,1.18c1.09,0,1.96-0.15,2.6-0.44
		c0.64-0.29,1.27-0.74,1.91-1.35l3.02,2.8c-0.51,0.49-1.02,0.91-1.53,1.27c-0.51,0.36-1.06,0.67-1.66,0.93
		c-0.6,0.25-1.25,0.45-1.97,0.58c-0.71,0.13-1.51,0.2-2.41,0.2c-1.17,0-2.31-0.15-3.42-0.44c-1.11-0.29-2.09-0.81-2.94-1.55
		c-0.85-0.74-1.54-1.73-2.06-2.98c-0.52-1.25-0.78-2.83-0.78-4.75c0-1.55,0.21-2.93,0.63-4.13s1.01-2.21,1.78-3.04
		c0.76-0.82,1.67-1.45,2.73-1.87c1.06-0.42,2.23-0.64,3.53-0.64c1.38,0,2.6,0.23,3.69,0.69c1.08,0.46,1.99,1.09,2.73,1.89
		c0.74,0.8,1.3,1.75,1.68,2.86c0.38,1.1,0.57,2.31,0.57,3.62v2.11H120.79z M128.22,33.02c-0.06-0.3-0.17-0.62-0.33-0.96
		c-0.28-0.56-0.69-1.02-1.24-1.4c-0.55-0.38-1.24-0.56-2.08-0.56c-0.84,0-1.53,0.19-2.08,0.56c-0.55,0.38-0.96,0.84-1.24,1.4
		c-0.15,0.34-0.26,0.66-0.32,0.96c-0.06,0.3-0.11,0.66-0.13,1.07h7.56C128.33,33.68,128.28,33.32,128.22,33.02z"/>
	<path class="st1" d="M143.29,48.39c-0.43,1.09-0.93,1.9-1.49,2.44c-0.59,0.56-1.24,0.94-1.97,1.15c-0.73,0.2-1.5,0.31-2.31,0.31
		h-1.95v-4.26h1.15c0.71,0,1.24-0.11,1.59-0.33c0.34-0.22,0.64-0.68,0.9-1.38l0.84-2.33l-6.8-17.6h5.23l4.12,11.71l3.97-11.71h5.23
		L143.29,48.39z"/>
	<path class="st1" d="M156.69,37.33c0,1.24,0.38,2.25,1.13,3.04c0.75,0.79,1.83,1.18,3.23,1.18c1.09,0,1.96-0.15,2.6-0.44
		c0.64-0.29,1.27-0.74,1.91-1.35l3.02,2.8c-0.51,0.49-1.02,0.91-1.53,1.27c-0.51,0.36-1.06,0.67-1.66,0.93
		c-0.6,0.25-1.25,0.45-1.97,0.58c-0.71,0.13-1.52,0.2-2.41,0.2c-1.17,0-2.31-0.15-3.42-0.44c-1.11-0.29-2.09-0.81-2.94-1.55
		c-0.85-0.74-1.54-1.73-2.06-2.98c-0.52-1.25-0.78-2.83-0.78-4.75c0-1.55,0.21-2.93,0.63-4.13s1.01-2.21,1.78-3.04
		c0.76-0.82,1.67-1.45,2.73-1.87c1.06-0.42,2.23-0.64,3.53-0.64c1.38,0,2.6,0.23,3.69,0.69c1.08,0.46,1.99,1.09,2.73,1.89
		c0.74,0.8,1.3,1.75,1.68,2.86c0.38,1.1,0.57,2.31,0.57,3.62v2.11H156.69z M164.12,33.02c-0.06-0.3-0.17-0.62-0.33-0.96
		c-0.28-0.56-0.69-1.02-1.24-1.4s-1.24-0.56-2.08-0.56c-0.84,0-1.53,0.19-2.08,0.56s-0.96,0.84-1.24,1.4
		c-0.15,0.34-0.26,0.66-0.32,0.96c-0.06,0.3-0.11,0.66-0.13,1.07h7.56C164.23,33.68,164.18,33.32,164.12,33.02z"/>
	<path class="st1" d="M187.87,43.43c-1.24,1.3-3.02,2.06-4.92,2.06c-1.76,0-3.44-0.65-4.68-1.83c-1.71-1.63-1.74-3.21-1.74-7.24
		c0-4.03,0.03-5.61,1.74-7.24c1.24-1.18,2.92-1.83,4.68-1.83c3.29,0,5.81,2.05,6.39,5.21h-1.42c-0.55-2.46-2.45-4.01-4.97-4.01
		c-1.34,0-2.6,0.48-3.55,1.38c-1.34,1.28-1.45,2.66-1.45,6.49s0.1,5.21,1.45,6.49c0.95,0.9,2.21,1.38,3.55,1.38
		c1.47,0,2.92-0.6,3.89-1.73c0.81-0.95,1.13-2,1.13-3.53v-1.6h-5.02v-1.2h6.44v2.91C189.39,40.97,188.97,42.3,187.87,43.43z"/>
	<path class="st1" d="M204.36,45.33l-4.47-8.22h-5.15v8.22h-1.42V27.49h7.13c3.05,0,5.37,1.68,5.37,4.79c0,2.66-1.68,4.38-4.31,4.81
		l4.52,8.24H204.36z M200.25,28.7h-5.52v7.22h5.52c2.39,0,4.13-1.15,4.13-3.61S202.65,28.7,200.25,28.7z"/>
	<path class="st1" d="M219.88,43.66c-1.24,1.18-2.92,1.83-4.68,1.83c-1.76,0-3.44-0.65-4.68-1.83c-1.71-1.63-1.74-3.21-1.74-7.24
		c0-4.03,0.03-5.61,1.74-7.24c1.24-1.18,2.92-1.83,4.68-1.83c1.76,0,3.45,0.65,4.68,1.83c1.71,1.63,1.74,3.21,1.74,7.24
		C221.61,40.45,221.59,42.03,219.88,43.66z M218.75,29.92c-0.95-0.9-2.21-1.38-3.55-1.38s-2.6,0.48-3.55,1.38
		c-1.34,1.28-1.45,2.66-1.45,6.49s0.1,5.21,1.45,6.49c0.95,0.9,2.21,1.38,3.55,1.38s2.6-0.48,3.55-1.38
		c1.34-1.28,1.45-2.66,1.45-6.49S220.09,31.2,218.75,29.92z"/>
	<path class="st1" d="M231.74,45.48c-3.76,0-6.42-2.46-6.42-5.94V27.49h1.42v11.88c0,2.96,2,4.91,5,4.91s5-1.96,5-4.91V27.49h1.42
		v12.05C238.16,43.03,235.5,45.48,231.74,45.48z"/>
	<path class="st1" d="M249.47,37.77h-5.44v7.57h-1.42V27.49h6.86c3.24,0,5.65,1.88,5.65,5.14S252.7,37.77,249.47,37.77z
		 M249.31,28.7h-5.29v7.87h5.29c2.58,0,4.39-1.25,4.39-3.93S251.89,28.7,249.31,28.7z"/>
</g>
</svg>
